<?xml version="1.0" encoding="UTF-8" standalone="no"?>
<svg
   xmlns:dc="http://purl.org/dc/elements/1.1/"
   xmlns:cc="http://creativecommons.org/ns#"
   xmlns:rdf="http://www.w3.org/1999/02/22-rdf-syntax-ns#"
   xmlns:svg="http://www.w3.org/2000/svg"
   xmlns="http://www.w3.org/2000/svg"
   xmlns:sodipodi="http://sodipodi.sourceforge.net/DTD/sodipodi-0.dtd"
   xmlns:inkscape="http://www.inkscape.org/namespaces/inkscape"
   class="inter-logo icon icon--banco-color fill-undefined"
   style="fill:currentColor"
   viewBox="0 0 226.91432 81.072945"
   version="1.1"
   id="svg8"
   sodipodi:docname="Inter logo 2020.svg"
   width="226.91432"
   height="81.072945"
   inkscape:version="1.0.2 (e86c870879, 2021-01-15, custom)"
   inkscape:export-filename="C:\Users\suitedoalex\sites\banco-inter-logo-0.png"
   inkscape:export-xdpi="561.73999"
   inkscape:export-ydpi="561.73999">
  <metadata
     id="metadata14">
    <rdf:RDF>
      <cc:Work
         rdf:about="">
        <dc:format>image/svg+xml</dc:format>
        <dc:type
           rdf:resource="http://purl.org/dc/dcmitype/StillImage" />
        <dc:title></dc:title>
      </cc:Work>
    </rdf:RDF>
  </metadata>
  <defs
     id="defs12" />
  <sodipodi:namedview
     pagecolor="#ffffff"
     bordercolor="#666666"
     borderopacity="1"
     objecttolerance="10"
     gridtolerance="10"
     guidetolerance="10"
     inkscape:pageopacity="0"
     inkscape:pageshadow="2"
     inkscape:window-width="1366"
     inkscape:window-height="705"
     id="namedview10"
     showgrid="false"
     inkscape:zoom="0.54168268"
     inkscape:cx="540.15078"
     inkscape:cy="24.028149"
     inkscape:window-x="-8"
     inkscape:window-y="-8"
     inkscape:window-maximized="1"
     inkscape:current-layer="svg8"
     inkscape:document-rotation="0"
     fit-margin-top="0"
     fit-margin-left="0"
     fit-margin-right="0"
     fit-margin-bottom="0" />
  <g
     id="g27"
     transform="matrix(0.37830001,0,0,0.37830001,-18.947841,-91.868531)">
    <path
       d="m 74.558626,260.35622 c -0.01101,0.31917 -0.01101,0.69888 -0.01101,1.45829 v 2.82854 c 0,0.75941 0,1.13912 0.01101,1.45829 0.357694,9.52018 8.447096,17.15834 18.528582,17.49953 0.341185,0.011 0.742904,0.011 1.551844,0.011 0.803437,0 1.205156,0 1.540838,-0.011 10.08699,-0.34119 18.18189,-7.97935 18.53408,-17.49953 0.0165,-0.31917 0.0165,-0.69888 0.0165,-1.45829 v -2.82854 c 0,-0.75941 0,-1.13912 -0.0165,-1.45829 -0.35219,-9.52018 -8.44709,-17.16384 -18.528577,-17.49952 -0.341185,-0.011 -0.742904,-0.011 -1.546341,-0.011 -0.80894,0 -1.210659,0 -1.551844,0.011 -10.081486,0.33568 -18.170888,7.97934 -18.528582,17.49952 z m 263.213724,67.51073 v 78.03796 c 0,13.57039 5.23885,19.68421 21.78085,19.68421 6.92827,0 13.74098,-1.92604 17.81869,-3.37883 v 31.44961 c -6.93377,2.32777 -17.53254,3.4944 -26.20526,3.4944 -34.76791,0 -51.24938,-17.41698 -51.24938,-47.52386 V 252.16226 h 37.8551 v 50.08275 h 39.59954 v 25.62744 h -39.59954 z"
       id="path2"
       style="fill:#ff7a00;fill-opacity:1;stroke-width:5.50299"
       inkscape:connector-curvature="0"
       inkscape:export-filename="C:\Users\suitedoalex\sites\banco-inter-logo-4.png"
       inkscape:export-xdpi="64.018524"
       inkscape:export-ydpi="64.018524" />
    <path
       d="m 390.18286,375.30276 c 0,-46.22515 29.14937,-77.71328 75.79825,-77.71328 49.84062,0 74.54356,36.36378 71.93514,89.09347 H 429.07253 c 1.97007,27.05272 14.66548,40.77169 37.15071,40.77169 19.00734,0 29.09433,-9.16799 33.4417,-22.13304 h 36.98012 c -7.18691,31.78529 -32.35761,51.8327 -70.65845,51.8327 -47.29273,0 -75.80375,-31.19097 -75.80375,-78.01045 v -3.84659 z m 75.51209,-47.4193 c -20.74629,0 -33.14453,11.10504 -36.62242,33.18306 l 70.82353,-0.58332 c -2.03611,-20.59771 -13.16316,-32.59974 -34.20111,-32.59974 z"
       id="path4"
       style="clip-rule:evenodd;fill:#ff7a00;fill-opacity:1;fill-rule:evenodd;stroke-width:5.50299"
       inkscape:connector-curvature="0"
       inkscape:export-filename="C:\Users\suitedoalex\sites\banco-inter-logo-4.png"
       inkscape:export-xdpi="64.018524"
       inkscape:export-ydpi="64.018524" />
    <path
       d="m 223.9209,297.58948 c -24.34525,0 -39.36842,14.38482 -46.88551,28.53302 l -1.74445,-23.87749 h -36.09965 v 150.24825 h 37.8496 v -84.44344 c 0,-24.92307 13.21819,-40.17737 33.19406,-40.17737 19.97587,0 27.37189,13.2182 27.37189,36.09965 v 88.52116 h 37.8496 v -96.6711 c 0.0605,-33.54075 -14.50039,-58.23268 -51.53554,-58.23268 z m 372.99846,28.53302 c 9.60822,-18.80923 29.2319,-28.53302 43.96892,-28.53302 2.61942,0 6.75217,0.34669 9.02491,0.86947 v 29.4135 a 114.28619,114.28619 0 0 0 -11.00599,-0.58331 c -26.90414,0 -41.98784,16.18981 -41.98784,43.67726 v 81.52686 H 559.05875 V 302.24501 h 36.68847 l 1.16663,23.87749 z M 50.08681,302.24501 v 25.59443 H 75.697746 V 452.49326 H 113.56385 V 302.24501 Z"
       id="path6"
       style="fill:#ff7a00;fill-opacity:1;stroke-width:5.50299"
       inkscape:connector-curvature="0"
       inkscape:export-filename="C:\Users\suitedoalex\sites\banco-inter-logo-4.png"
       inkscape:export-xdpi="64.018524"
       inkscape:export-ydpi="64.018524" />
  </g>
</svg>
