<?xml version="1.0" encoding="utf-8"?>
<!-- Generator: Adobe Illustrator 24.3.0, SVG Export Plug-In . SVG Version: 6.00 Build 0)  -->
<svg version="1.1" id="Layer_1" xmlns="http://www.w3.org/2000/svg" xmlns:xlink="http://www.w3.org/1999/xlink" x="0px" y="0px"
	 viewBox="0 0 512 512" style="enable-background:new 0 0 512 512;" xml:space="preserve">
<style type="text/css">
	.st0{fill:none;}
	.st1{fill:#CC092F;}
</style>
<g id="XMLID_32_">
	<g id="XMLID_60_">
		<rect id="canvas_background" x="81.9" y="117.9" class="st0" width="348.1" height="288.7"/>
	</g>
	<g id="XMLID_49_">
		<g id="PROPORÃ_x2021__x5F_x2DC_x5F_AO_x5F_E_x5F_REGRAS">
			<g id="svg_1">
				<path id="svg_2" class="st1" d="M182.8,357.6c-5-0.1-9.4,0.5-13.8,1.5c-0.8,2.9-0.7,7.1,0,10.1c5.3-1.2,8.3-1.3,11.7-1.3
					c6.6,0,9.8,2.7,9.8,8.1v0.5c-2-0.2-4.3-0.4-6-0.4c-10.9,0-20.2,3.9-20.2,14.4c0,11.8,8.4,15.8,20.6,15.8c5.8,0,12-1,17.8-2.8
					v-26.6C202.7,364.2,195.9,357.9,182.8,357.6L182.8,357.6z M190.5,395.8c-0.7,0.2-3.9,0.5-5.4,0.5c-5.9,0-9-1.7-9-5.9
					c0-4.1,3.2-5.8,9-5.8c2,0,4.2,0.2,5.4,0.3V395.8L190.5,395.8z"/>
				<path id="svg_3" class="st1" d="M159.3,358.2c-6.1,0-9.5,2.4-12.8,6.6c-0.3-2.2-0.7-3.9-1.4-6.1c-1.2-0.4-3.4-0.5-5.2-0.5
					c-1.7,0-4,0.2-5.1,0.5v46.5c1.5,0.4,4.1,0.5,6.4,0.5c2.2,0,5-0.2,6.4-0.5v-22.7c0-9,4.7-13.9,11.1-13.9c1.1,0,3.1,0,4.2,0.2
					c0.7-3,0.8-7.3,0.2-10.3C162.2,358.5,160.3,358.2,159.3,358.2z"/>
				<path id="svg_4" class="st1" d="M106.1,357.8c-3.7,0-7.3,0.8-9.5,2V337c-3.6,1.3-7.4,3.2-10.6,5.8c-1.6,1.3-2.2,2.7-2.2,4.6
					v56.3c3.4,1.4,10.3,2.7,16.8,2.7c16.6,0,26.2-10.2,26.2-24.9C126.9,366.9,120.1,357.8,106.1,357.8z M101.4,395.9
					c-1.3,0-3.4,0-4.8-0.5v-25.6c1.7-0.9,4.2-1.4,7.4-1.4c6.4,0,9.8,4.4,9.8,12.7C113.7,389.9,109.7,395.9,101.4,395.9z"/>
				<path id="svg_5" class="st1" d="M239.8,347.4v11.2c-2.3-0.6-4.6-0.7-6.7-0.7c-14.1,0-23.6,9.4-23.6,24.5
					c0,15.4,9.3,23.9,23.9,23.9c6.7,0,13.2-0.9,19.1-2.9V337c-3.6,1.3-7.4,3.2-10.6,5.8C240.3,344.1,239.8,345.4,239.8,347.4z
					 M239.8,395.2c-2.2,0.6-3.7,0.7-5.4,0.7c-8.4,0-11.7-5.5-11.7-13.6c0-8.9,3.3-14.4,11.6-14.4c2.5,0,4,0.3,5.5,0.7V395.2
					L239.8,395.2z"/>
				<path id="svg_6" class="st1" d="M330.9,377.7l-5.1-2.2c-3-1.2-4.7-2.3-4.7-4.2c0-3,2.7-3.6,6.2-3.6c3.5,0,7.1,0.4,12,2
					c0.6-3.4,0.6-6.6,0-9.5c-3.1-1.6-8.8-2.5-13.9-2.5c-9.9,0-17.4,5.3-17.4,13.3c0,7.2,3.1,10.8,11.7,14.3l4,1.6
					c3.8,1.5,4.9,2.5,4.9,4.9c0,3.7-3.7,4.3-6.8,4.3c-5.1,0-9-1-14-2.8c-0.8,3-0.8,6.9,0,10c4.2,2.3,10,3,16,3
					c9.8,0,17.6-5.1,17.6-14.4C341.4,384.3,338.2,380.7,330.9,377.7L330.9,377.7z"/>
				<path id="svg_7" class="st1" d="M370.5,395.8c-6.4,0-10.6-5-10.6-13.9c0-8.4,3.4-13.9,10.7-13.9c3.1,0,5.2,0.5,8.1,1.6
					c0.8-2.9,2.4-6.2,4.5-8.9c-4-2.1-7.9-3.2-14.3-3.2c-14.1,0-22.2,10-22.2,24.3c0,14.9,8.3,24.3,22.7,24.3c5.2,0,10.1-0.9,14-3.1
					c-1.7-2.3-3.7-5.3-4.8-8.9C375,395.7,373.5,395.8,370.5,395.8z"/>
				<path id="svg_8" class="st1" d="M406.1,357.6c-14.3,0-22.3,9.8-22.3,24.4c0,14.9,8.4,24.2,22.3,24.2c14.4,0,22.4-9.5,22.4-24.2
					C428.5,367.3,420.5,357.6,406.1,357.6z M406.1,396c-7.1,0-9.2-5.8-9.2-14c0-8,2.2-14.2,9.2-14.2c7.3,0,9.3,6,9.3,14.2
					C415.4,390.7,413.1,396,406.1,396z"/>
				<path id="svg_9" class="st1" d="M281.9,357.6c-13.8,0-22.2,9.2-22.2,24.6c0,15.4,8.9,24,24.2,24c5.2,0,10.9-0.9,14.5-2.7
					c0.7-3,0.7-6.9,0-9.9c-4.7,1.3-8.7,2.2-13.1,2.2c-7.1,0-12-2.7-13-10.2h29c0.4-1.1,0.5-4.9,0.5-6.5
					C301.7,365.4,293.9,357.6,281.9,357.6L281.9,357.6z M272.3,376.4c0.9-5.6,4.3-9,9.4-9c5.8,0,8,3.9,8.2,9H272.3L272.3,376.4z"/>
				<path id="svg_10" class="st1" d="M250.8,159.5c-11.6,0-24.2,1.1-36.7,3.2c12.6-16.2,32.7-26.7,55.1-26.7
					c16.5,0,33,6.2,44.1,15.5c2,1.7,3.6,1.8,5.1,0.3s1.4-3.1-0.3-5c-14.5-16.9-35.8-28.2-60.9-27.8c-32.9,0.6-60.8,21.4-71.5,50.2
					c-9.7,3.1-18.7,6.7-26.5,11.1c-2.2,1.2-2.9,2.7-2.2,4.5c0.8,1.7,2.3,2.3,4.5,1.7c6.8-2,13.7-3.7,21-5.2
					c-0.8,3.8-1.2,7.7-1.2,11.8c-0.6,26.5,13.6,51.8,35.5,65.6c2.2,1.4,4,1.4,5.2-0.3c1.2-1.7,1.1-3.2-0.8-4.8
					c-13.9-12.4-21.6-31-21.6-49.3c0-9.3,1.9-18.2,5.4-26.3c7.3-0.6,15.1-1.1,23.8-1.1c56.2,0,103.5,18.5,103.5,42.8
					c0,12.3-15.6,24.6-34.1,32.8c-4.5,2-4.9,3.4-4.3,5.3c0.6,1.8,2.6,2.4,4.9,1.7c32.4-10.6,56.9-28.1,56.9-49.2
					C355.7,181.7,309.4,159.5,250.8,159.5L250.8,159.5z"/>
				<path id="svg_11" class="st1" d="M277.6,305.5V244c0-2.4-2.3-3.2-4.1-2.1l-15.6,9v57.6h16.8
					C276.2,308.4,277.6,307.1,277.6,305.5z"/>
				<path id="svg_12" class="st1" d="M238.8,264v42.5c0,1.1,0.8,1.9,1.9,1.9h11.8v-54.6l-11.8,6.8
					C239.5,261.4,238.8,262.5,238.8,264z"/>
			</g>
		</g>
	</g>
</g>
</svg>
