<?xml version="1.0" encoding="utf-8"?>
<!-- Generator: Adobe Illustrator 25.0.0, SVG Export Plug-In . SVG Version: 6.00 Build 0)  -->
<svg version="1.1" id="katman_1" xmlns="http://www.w3.org/2000/svg" xmlns:xlink="http://www.w3.org/1999/xlink" x="0px" y="0px"
	 viewBox="0 0 2500 1799.1" style="enable-background:new 0 0 2500 1799.1;" xml:space="preserve">
<style type="text/css">
	.st0{fill-rule:evenodd;clip-rule:evenodd;fill:#0D6FAB;}
	.st1{fill-rule:evenodd;clip-rule:evenodd;fill:#DB8135;}
</style>
<g>
	<path class="st0" d="M836.1,818.3l-55.2,137.6h76.4l-20.9-138.2L836.1,818.3z M543.6,1134.2l226.5-466.4h171.2l95.5,466.4H886.5
		l-11.1-62.1H729.5l-33.6,62.1H543.6z M1108,1134.2l65.6-466.4h151.5l-65.6,466.4H1108z M2115.7,817.7l-55.4,138.2h76.4
		L2115.7,817.7L2115.7,817.7z M1822.9,1134.2l226.5-466.4h171.2l95.5,466.4h-150.4l-11.1-62.1h-145.9l-33.6,62.1H1822.9z
		 M1488,916.1h189.8l130.1,215.5H1618L1488,916.1L1488,916.1z"/>
	<path class="st1" d="M1507.7,883h196.2l170.4-214.5h-196.2L1507.7,883L1507.7,883z M1311.5,1132.9h196.2l170.4-217.2h-196.2
		L1311.5,1132.9z"/>
	<path class="st0" d="M1382.2,665.9h183.1L1690.8,883h-183.1L1382.2,665.9L1382.2,665.9z M548.1,684.5l-14.6,137.2
		c-55.8-77-185.3-23.9-195.4,72.1c-12.9,121.8,111.6,150.2,179.4,78.5l-14.6,137.5c-20.2,10-40,17.7-59.5,22.9
		c-19,5.1-38.5,8-58.2,8.4c-24.3,0.5-46.3-2-66.1-7.6c-19.3-5.3-37.5-14.1-53.6-26c-30.6-22.4-52.7-50.8-66.4-85.4
		c-13.6-34.7-18.1-73.9-13.5-117.7c3.7-35.2,12.6-67.3,26.7-96.4c14-29.1,33.4-55.5,58.1-79.5c23.4-22.9,48.8-40.1,76.3-51.8
		c27.4-11.6,57.3-17.8,89.7-18.5c19.1-0.5,38.1,1.5,56.7,6C511.6,668.5,529.9,675.4,548.1,684.5L548.1,684.5z"/>
</g>
</svg>
